<svg xmlns="http://www.w3.org/2000/svg" viewBox="0 0 160.67 157.77"><defs><style>.cls-1{fill:#c37f8e;}.cls-2{fill:#955964;opacity:0.8;}.cls-3{isolation:isolate;}.cls-4{fill:#459875;}.cls-5{fill:#257050;}.cls-6{fill:#4da783;}</style></defs><title>Aktiv 1</title><g id="Lag_2" data-name="Lag 2"><g id="Lag_2-2" data-name="Lag 2"><g id="Lag_1-2" data-name="Lag 1"><path class="cls-1" d="M96.29,128.42c2.76-1.59,4.5-1.94,5.26-1.95l-.68,3A10.5,10.5,0,0,0,96.39,131a17.29,17.29,0,0,0-8.62,15.06c0,6,3.15,8,8.54,4.89a20.15,20.15,0,0,0,4.67-3.71l.6,2.15a24.68,24.68,0,0,1-5.85,4.54c-6.25,3.61-11,2-11-6C84.73,140.29,89.41,132.39,96.29,128.42Z"/><path class="cls-1" d="M122.72,113.57l0,14.22c0,7.49-3.55,12.63-8.35,15.41-4.54,2.62-8,1.73-8-5.83l0-14.37,2.9-1.67,0,14.44c0,5.46,2.22,6.51,5.18,4.8,3.28-1.9,5.39-5.5,5.37-10.9l0-14.43Z"/><path class="cls-1" d="M138.44,115.84c2.1-.64,4.58-.15,4.59,3.48a11.64,11.64,0,0,1-1.86,6c-1.54,2.44-4,4.61-7.66,6.69a41.7,41.7,0,0,1-4.44,2.28l-.07-24a42.68,42.68,0,0,1,5.23-3.53c2.86-1.66,4.7-2.17,6.09-1.74,1.15.27,1.85,1.32,1.85,3.24,0,2.35-1.4,5.24-3.73,7.52Zm-4.11,13.21c2.95-1.71,5.68-4.48,5.67-8,0-3.33-2.61-3.21-5.74-1.41L131.9,121l0,9.3a19.45,19.45,0,0,0,2.4-1.24m-2.46-18.31,0,7.86,2.6-1.5c3-1.74,4.8-4.51,4.79-6.86,0-2.86-2-2.84-4.88-1.17a18.56,18.56,0,0,0-2.53,1.67"/><polygon class="cls-1" points="160.11 91.98 160.12 94.62 151.01 99.88 151.03 107.59 159.64 102.62 159.65 105.22 151.04 110.2 151.06 118.99 160.66 113.45 160.67 116.09 148.21 123.28 148.14 98.89 160.11 91.98"/><path class="cls-2" d="M11.07,97.13l7.35,28.61-3-1.73-2.3-9-7.71-4.45-2.28,6.35-2.9-1.68L7.68,95.17ZM6,108.45l6.55,3.78L10.44,104c-.48-1.86-.8-3.49-1.12-5.09l-.06,0c-.33,1.25-.69,2.53-1.11,3.76L6,108.45"/><polygon class="cls-2" points="25.78 105.62 25.71 127.31 35.01 132.68 35 135.31 22.91 128.33 22.97 104 25.78 105.62"/><path class="cls-2" d="M47,117.5c5.93,3.42,9.75,10.73,9.73,17.95,0,8.37-4.58,10.18-10.13,7-5.74-3.31-9.76-10.63-9.74-18C36.92,116.72,41.23,114.14,47,117.5ZM46.81,140c4.45,2.57,7-.56,7-6.08,0-4.84-2.23-11.2-6.91-13.9s-7,.78-7,6.12,2.49,11.31,6.91,13.86"/><polygon class="cls-2" points="73.48 133.16 73.47 135.79 64.54 130.63 64.52 138.32 72.97 143.2 72.96 145.8 64.51 140.92 64.48 149.69 73.91 155.13 73.9 157.77 61.67 150.71 61.74 126.38 73.48 133.16"/><g class="cls-3"><polygon class="cls-4" points="159.92 46.28 159.8 87.04 80.17 133.32 80.28 92.56 159.92 46.28"/><polygon class="cls-5" points="80.28 92.56 80.17 133.32 0 87.04 0.12 46.28 80.28 92.56"/><polygon class="cls-6" points="159.92 46.28 80.28 92.56 0.12 46.28 79.75 0 159.92 46.28"/></g></g></g></g></svg>